G04 Layer: BottomSilkLayer*
G04 EasyEDA v6.2.46, 2019-12-30T00:29:30+05:30*
G04 ef53065936be4c9b9f598b0f68a09c93,6145028fc9404f35aebdec50a9af1db0,10*
G04 Gerber Generator version 0.2*
G04 Scale: 100 percent, Rotated: No, Reflected: No *
G04 Dimensions in millimeters *
G04 leading zeros omitted , absolute positions ,3 integer and 3 decimal *
%FSLAX33Y33*%
%MOMM*%
G90*
G71D02*

%ADD10C,0.254000*%
%ADD45C,0.203200*%
%ADD50C,0.799998*%
%ADD54C,0.152400*%
%ADD56C,0.150012*%

%LPD*%

%LPD*%
G36*
G01X69429Y28209D02*
G01X69342Y28209D01*
G01X69250Y28208D01*
G01X68793Y28201D01*
G01X68775Y28132D01*
G01X68770Y28111D01*
G01X68763Y28077D01*
G01X68754Y28032D01*
G01X68743Y27978D01*
G01X68731Y27916D01*
G01X68719Y27848D01*
G01X68706Y27776D01*
G01X68692Y27703D01*
G01X68673Y27594D01*
G01X68657Y27504D01*
G01X68642Y27431D01*
G01X68628Y27372D01*
G01X68614Y27325D01*
G01X68598Y27289D01*
G01X68580Y27261D01*
G01X68559Y27240D01*
G01X68533Y27224D01*
G01X68501Y27210D01*
G01X68463Y27196D01*
G01X68417Y27181D01*
G01X68341Y27154D01*
G01X68257Y27121D01*
G01X68176Y27087D01*
G01X68109Y27055D01*
G01X68066Y27034D01*
G01X68030Y27016D01*
G01X67998Y27004D01*
G01X67969Y26997D01*
G01X67939Y26997D01*
G01X67907Y27004D01*
G01X67870Y27018D01*
G01X67827Y27042D01*
G01X67774Y27074D01*
G01X67709Y27116D01*
G01X67630Y27169D01*
G01X67535Y27234D01*
G01X67461Y27284D01*
G01X67390Y27331D01*
G01X67325Y27375D01*
G01X67267Y27413D01*
G01X67217Y27445D01*
G01X67177Y27471D01*
G01X67150Y27488D01*
G01X67136Y27495D01*
G01X67123Y27491D01*
G01X67098Y27473D01*
G01X67062Y27444D01*
G01X67018Y27406D01*
G01X66967Y27361D01*
G01X66910Y27309D01*
G01X66851Y27254D01*
G01X66790Y27196D01*
G01X66729Y27137D01*
G01X66671Y27080D01*
G01X66617Y27025D01*
G01X66568Y26975D01*
G01X66527Y26931D01*
G01X66496Y26895D01*
G01X66476Y26869D01*
G01X66469Y26855D01*
G01X66474Y26843D01*
G01X66489Y26817D01*
G01X66513Y26779D01*
G01X66544Y26730D01*
G01X66582Y26671D01*
G01X66626Y26606D01*
G01X66675Y26534D01*
G01X66726Y26458D01*
G01X66795Y26358D01*
G01X66851Y26277D01*
G01X66895Y26211D01*
G01X66929Y26158D01*
G01X66952Y26115D01*
G01X66965Y26078D01*
G01X66970Y26046D01*
G01X66966Y26015D01*
G01X66956Y25982D01*
G01X66939Y25944D01*
G01X66916Y25899D01*
G01X66888Y25844D01*
G01X66848Y25757D01*
G01X66808Y25666D01*
G01X66774Y25582D01*
G01X66750Y25516D01*
G01X66738Y25479D01*
G01X66726Y25448D01*
G01X66713Y25423D01*
G01X66698Y25401D01*
G01X66677Y25383D01*
G01X66649Y25368D01*
G01X66613Y25354D01*
G01X66566Y25340D01*
G01X66506Y25327D01*
G01X66433Y25313D01*
G01X66343Y25297D01*
G01X66235Y25278D01*
G01X66159Y25266D01*
G01X66091Y25255D01*
G01X66031Y25245D01*
G01X65979Y25236D01*
G01X65934Y25227D01*
G01X65895Y25217D01*
G01X65862Y25207D01*
G01X65834Y25195D01*
G01X65812Y25180D01*
G01X65794Y25163D01*
G01X65781Y25142D01*
G01X65770Y25118D01*
G01X65763Y25089D01*
G01X65759Y25054D01*
G01X65757Y25015D01*
G01X65757Y24916D01*
G01X65759Y24855D01*
G01X65760Y24787D01*
G01X65762Y24710D01*
G01X65769Y24252D01*
G01X66219Y24163D01*
G01X66328Y24141D01*
G01X66419Y24123D01*
G01X66495Y24107D01*
G01X66555Y24092D01*
G01X66603Y24077D01*
G01X66639Y24062D01*
G01X66667Y24046D01*
G01X66686Y24027D01*
G01X66700Y24006D01*
G01X66711Y23981D01*
G01X66719Y23951D01*
G01X66726Y23915D01*
G01X66741Y23863D01*
G01X66770Y23787D01*
G01X66808Y23695D01*
G01X66852Y23599D01*
G01X66875Y23549D01*
G01X66896Y23506D01*
G01X66914Y23469D01*
G01X66927Y23437D01*
G01X66937Y23408D01*
G01X66943Y23381D01*
G01X66944Y23356D01*
G01X66941Y23330D01*
G01X66933Y23303D01*
G01X66919Y23273D01*
G01X66900Y23239D01*
G01X66876Y23200D01*
G01X66845Y23154D01*
G01X66808Y23101D01*
G01X66765Y23039D01*
G01X66714Y22967D01*
G01X66672Y22907D01*
G01X66634Y22854D01*
G01X66600Y22807D01*
G01X66571Y22766D01*
G01X66547Y22729D01*
G01X66527Y22697D01*
G01X66513Y22668D01*
G01X66503Y22642D01*
G01X66498Y22617D01*
G01X66498Y22594D01*
G01X66503Y22570D01*
G01X66513Y22547D01*
G01X66529Y22522D01*
G01X66550Y22495D01*
G01X66577Y22465D01*
G01X66609Y22432D01*
G01X66647Y22395D01*
G01X66691Y22352D01*
G01X66740Y22304D01*
G01X66796Y22249D01*
G01X67123Y21922D01*
G01X67484Y22170D01*
G01X67580Y22235D01*
G01X67658Y22289D01*
G01X67721Y22331D01*
G01X67771Y22363D01*
G01X67812Y22385D01*
G01X67846Y22398D01*
G01X67876Y22403D01*
G01X67903Y22400D01*
G01X67932Y22391D01*
G01X67964Y22375D01*
G01X68002Y22354D01*
G01X68049Y22328D01*
G01X68078Y22312D01*
G01X68103Y22297D01*
G01X68125Y22284D01*
G01X68145Y22274D01*
G01X68162Y22266D01*
G01X68179Y22262D01*
G01X68194Y22263D01*
G01X68209Y22269D01*
G01X68224Y22281D01*
G01X68240Y22300D01*
G01X68257Y22326D01*
G01X68276Y22360D01*
G01X68297Y22403D01*
G01X68320Y22455D01*
G01X68347Y22517D01*
G01X68378Y22591D01*
G01X68412Y22676D01*
G01X68452Y22773D01*
G01X68497Y22883D01*
G01X68548Y23007D01*
G01X68598Y23129D01*
G01X68642Y23237D01*
G01X68682Y23333D01*
G01X68716Y23416D01*
G01X68746Y23490D01*
G01X68771Y23553D01*
G01X68791Y23607D01*
G01X68808Y23652D01*
G01X68820Y23690D01*
G01X68828Y23722D01*
G01X68833Y23748D01*
G01X68835Y23769D01*
G01X68833Y23786D01*
G01X68828Y23799D01*
G01X68820Y23811D01*
G01X68810Y23821D01*
G01X68797Y23830D01*
G01X68782Y23839D01*
G01X68765Y23850D01*
G01X68747Y23862D01*
G01X68699Y23897D01*
G01X68654Y23933D01*
G01X68611Y23970D01*
G01X68572Y24009D01*
G01X68534Y24048D01*
G01X68500Y24089D01*
G01X68467Y24131D01*
G01X68438Y24173D01*
G01X68410Y24216D01*
G01X68385Y24260D01*
G01X68363Y24305D01*
G01X68343Y24350D01*
G01X68325Y24396D01*
G01X68310Y24442D01*
G01X68297Y24488D01*
G01X68287Y24535D01*
G01X68278Y24582D01*
G01X68272Y24629D01*
G01X68268Y24676D01*
G01X68267Y24722D01*
G01X68268Y24769D01*
G01X68270Y24815D01*
G01X68275Y24862D01*
G01X68282Y24907D01*
G01X68292Y24952D01*
G01X68303Y24997D01*
G01X68316Y25041D01*
G01X68332Y25084D01*
G01X68349Y25126D01*
G01X68369Y25168D01*
G01X68390Y25208D01*
G01X68413Y25248D01*
G01X68439Y25286D01*
G01X68466Y25323D01*
G01X68495Y25359D01*
G01X68526Y25393D01*
G01X68559Y25426D01*
G01X68593Y25458D01*
G01X68630Y25487D01*
G01X68668Y25515D01*
G01X68708Y25542D01*
G01X68749Y25566D01*
G01X68793Y25589D01*
G01X68838Y25609D01*
G01X68885Y25628D01*
G01X68933Y25644D01*
G01X68983Y25658D01*
G01X69034Y25669D01*
G01X69088Y25678D01*
G01X69142Y25685D01*
G01X69199Y25689D01*
G01X69256Y25690D01*
G01X69312Y25689D01*
G01X69366Y25685D01*
G01X69418Y25679D01*
G01X69469Y25670D01*
G01X69519Y25660D01*
G01X69568Y25647D01*
G01X69615Y25631D01*
G01X69660Y25614D01*
G01X69704Y25595D01*
G01X69746Y25574D01*
G01X69787Y25551D01*
G01X69826Y25526D01*
G01X69864Y25499D01*
G01X69900Y25471D01*
G01X69934Y25441D01*
G01X69967Y25410D01*
G01X69998Y25377D01*
G01X70027Y25344D01*
G01X70055Y25308D01*
G01X70081Y25272D01*
G01X70105Y25234D01*
G01X70127Y25196D01*
G01X70147Y25156D01*
G01X70166Y25116D01*
G01X70182Y25074D01*
G01X70197Y25032D01*
G01X70210Y24990D01*
G01X70221Y24946D01*
G01X70230Y24902D01*
G01X70236Y24858D01*
G01X70241Y24813D01*
G01X70244Y24768D01*
G01X70245Y24723D01*
G01X70243Y24678D01*
G01X70240Y24632D01*
G01X70234Y24586D01*
G01X70226Y24541D01*
G01X70216Y24495D01*
G01X70204Y24450D01*
G01X70189Y24405D01*
G01X70172Y24361D01*
G01X70153Y24316D01*
G01X70132Y24273D01*
G01X70108Y24229D01*
G01X70082Y24187D01*
G01X70054Y24145D01*
G01X70023Y24104D01*
G01X69990Y24064D01*
G01X69954Y24024D01*
G01X69916Y23986D01*
G01X69875Y23949D01*
G01X69832Y23912D01*
G01X69770Y23862D01*
G01X69718Y23818D01*
G01X69682Y23785D01*
G01X69667Y23767D01*
G01X69667Y23760D01*
G01X69671Y23745D01*
G01X69678Y23723D01*
G01X69689Y23693D01*
G01X69702Y23656D01*
G01X69719Y23612D01*
G01X69739Y23560D01*
G01X69762Y23503D01*
G01X69816Y23368D01*
G01X69847Y23291D01*
G01X69881Y23208D01*
G01X69917Y23120D01*
G01X69956Y23026D01*
G01X69998Y22927D01*
G01X70041Y22822D01*
G01X70112Y22654D01*
G01X70167Y22523D01*
G01X70209Y22423D01*
G01X70240Y22351D01*
G01X70261Y22303D01*
G01X70274Y22273D01*
G01X70282Y22257D01*
G01X70286Y22251D01*
G01X70304Y22255D01*
G01X70345Y22271D01*
G01X70405Y22298D01*
G01X70477Y22333D01*
G01X70659Y22423D01*
G01X71025Y22173D01*
G01X71391Y21924D01*
G01X71717Y22250D01*
G01X71773Y22305D01*
G01X71822Y22353D01*
G01X71866Y22395D01*
G01X71904Y22432D01*
G01X71936Y22465D01*
G01X71962Y22495D01*
G01X71983Y22522D01*
G01X71999Y22547D01*
G01X72010Y22571D01*
G01X72015Y22594D01*
G01X72015Y22617D01*
G01X72010Y22642D01*
G01X72000Y22668D01*
G01X71985Y22697D01*
G01X71965Y22729D01*
G01X71941Y22766D01*
G01X71912Y22807D01*
G01X71879Y22854D01*
G01X71841Y22907D01*
G01X71798Y22967D01*
G01X71734Y23059D01*
G01X71681Y23135D01*
G01X71639Y23198D01*
G01X71607Y23248D01*
G01X71585Y23290D01*
G01X71571Y23325D01*
G01X71565Y23356D01*
G01X71567Y23385D01*
G01X71574Y23414D01*
G01X71588Y23446D01*
G01X71607Y23484D01*
G01X71630Y23529D01*
G01X71665Y23604D01*
G01X71704Y23694D01*
G01X71741Y23789D01*
G01X71772Y23878D01*
G01X71835Y24074D01*
G01X72290Y24163D01*
G01X72744Y24252D01*
G01X72751Y24710D01*
G01X72752Y24787D01*
G01X72754Y24855D01*
G01X72755Y24916D01*
G01X72756Y24968D01*
G01X72756Y25015D01*
G01X72753Y25054D01*
G01X72749Y25089D01*
G01X72742Y25118D01*
G01X72732Y25142D01*
G01X72718Y25163D01*
G01X72700Y25180D01*
G01X72678Y25195D01*
G01X72651Y25207D01*
G01X72618Y25217D01*
G01X72579Y25227D01*
G01X72533Y25236D01*
G01X72481Y25245D01*
G01X72421Y25255D01*
G01X72353Y25266D01*
G01X72277Y25278D01*
G01X72168Y25297D01*
G01X72077Y25313D01*
G01X72003Y25328D01*
G01X71943Y25341D01*
G01X71896Y25355D01*
G01X71859Y25370D01*
G01X71831Y25387D01*
G01X71810Y25408D01*
G01X71793Y25432D01*
G01X71779Y25462D01*
G01X71766Y25498D01*
G01X71752Y25540D01*
G01X71725Y25614D01*
G01X71690Y25700D01*
G01X71652Y25788D01*
G01X71614Y25866D01*
G01X71589Y25915D01*
G01X71568Y25954D01*
G01X71553Y25988D01*
G01X71544Y26018D01*
G01X71542Y26047D01*
G01X71547Y26078D01*
G01X71561Y26114D01*
G01X71585Y26157D01*
G01X71618Y26210D01*
G01X71662Y26276D01*
G01X71718Y26357D01*
G01X71786Y26457D01*
G01X71838Y26533D01*
G01X71930Y26671D01*
G01X71968Y26729D01*
G01X72000Y26778D01*
G01X72024Y26817D01*
G01X72039Y26843D01*
G01X72044Y26855D01*
G01X72037Y26869D01*
G01X72017Y26895D01*
G01X71985Y26931D01*
G01X71944Y26975D01*
G01X71896Y27025D01*
G01X71841Y27080D01*
G01X71783Y27137D01*
G01X71723Y27196D01*
G01X71662Y27254D01*
G01X71602Y27309D01*
G01X71546Y27361D01*
G01X71495Y27406D01*
G01X71450Y27444D01*
G01X71415Y27473D01*
G01X71390Y27491D01*
G01X71377Y27495D01*
G01X71363Y27488D01*
G01X71335Y27471D01*
G01X71296Y27445D01*
G01X71246Y27413D01*
G01X71188Y27375D01*
G01X71122Y27331D01*
G01X71052Y27284D01*
G01X70977Y27234D01*
G01X70882Y27169D01*
G01X70804Y27116D01*
G01X70739Y27074D01*
G01X70686Y27042D01*
G01X70642Y27018D01*
G01X70605Y27004D01*
G01X70573Y26997D01*
G01X70544Y26997D01*
G01X70514Y27004D01*
G01X70483Y27016D01*
G01X70447Y27034D01*
G01X70404Y27055D01*
G01X70336Y27087D01*
G01X70256Y27121D01*
G01X70173Y27154D01*
G01X70097Y27180D01*
G01X70034Y27202D01*
G01X69985Y27222D01*
G01X69948Y27244D01*
G01X69921Y27271D01*
G01X69901Y27307D01*
G01X69886Y27355D01*
G01X69872Y27419D01*
G01X69858Y27501D01*
G01X69847Y27569D01*
G01X69834Y27642D01*
G01X69821Y27717D01*
G01X69807Y27792D01*
G01X69792Y27866D01*
G01X69778Y27937D01*
G01X69765Y28003D01*
G01X69753Y28062D01*
G01X69741Y28113D01*
G01X69732Y28153D01*
G01X69724Y28181D01*
G01X69720Y28194D01*
G01X69708Y28198D01*
G01X69679Y28202D01*
G01X69634Y28204D01*
G01X69576Y28206D01*
G01X69507Y28208D01*
G01X69429Y28209D01*
G37*

%LPD*%
G54D50*
G01X1159Y-76D02*
G01X78558Y-76D01*
G01X78558Y91591D01*
G01X-39Y91591D01*
G01X-39Y-66D01*
G01X1129Y-66D01*
G54D10*
G01X64743Y28843D02*
G01X64743Y20686D01*
G01X15323Y26409D02*
G01X15323Y20009D01*
G01X15323Y26409D02*
G01X11523Y26409D01*
G01X11523Y20009D02*
G01X11523Y26409D01*
G01X11523Y20009D02*
G01X15323Y20009D01*
G01X30419Y4967D02*
G01X30419Y3119D01*
G01X27879Y3119D01*
G01X27879Y4967D01*
G01X27879Y6491D02*
G01X27879Y8349D01*
G01X30419Y8349D01*
G01X30419Y6491D01*
G01X28379Y5739D02*
G01X29929Y5739D01*
G01X29169Y5149D02*
G01X29169Y5729D01*
G01X74871Y88839D02*
G01X76719Y88839D01*
G01X76719Y86299D01*
G01X74871Y86299D01*
G01X73347Y86299D02*
G01X71489Y86299D01*
G01X71489Y88839D01*
G01X73347Y88839D01*
G01X74099Y86799D02*
G01X74099Y88349D01*
G01X74689Y87589D02*
G01X74109Y87589D01*
G01X74871Y85704D02*
G01X76719Y85704D01*
G01X76719Y83164D01*
G01X74871Y83164D01*
G01X73347Y83164D02*
G01X71489Y83164D01*
G01X71489Y85704D01*
G01X73347Y85704D01*
G01X74099Y83664D02*
G01X74099Y85214D01*
G01X74689Y84454D02*
G01X74109Y84454D01*
G01X3267Y83219D02*
G01X1419Y83219D01*
G01X1419Y85759D01*
G01X3267Y85759D01*
G01X4791Y85759D02*
G01X6649Y85759D01*
G01X6649Y83219D01*
G01X4791Y83219D01*
G01X4039Y85259D02*
G01X4039Y83709D01*
G01X3449Y84469D02*
G01X4029Y84469D01*
G01X3267Y86434D02*
G01X1419Y86434D01*
G01X1419Y88974D01*
G01X3267Y88974D01*
G01X4791Y88974D02*
G01X6649Y88974D01*
G01X6649Y86434D01*
G01X4791Y86434D01*
G01X4039Y88474D02*
G01X4039Y86924D01*
G01X3449Y87684D02*
G01X4029Y87684D01*
G01X38299Y4967D02*
G01X38299Y3119D01*
G01X35759Y3119D01*
G01X35759Y4967D01*
G01X35759Y6491D02*
G01X35759Y8349D01*
G01X38299Y8349D01*
G01X38299Y6491D01*
G01X36259Y5739D02*
G01X37809Y5739D01*
G01X37049Y5149D02*
G01X37049Y5729D01*
G54D56*
G01X71206Y19550D02*
G01X71206Y18596D01*
G01X71206Y19550D02*
G01X70888Y19550D01*
G01X70751Y19505D01*
G01X70661Y19414D01*
G01X70615Y19323D01*
G01X70570Y19187D01*
G01X70570Y18959D01*
G01X70615Y18823D01*
G01X70661Y18732D01*
G01X70751Y18641D01*
G01X70888Y18596D01*
G01X71206Y18596D01*
G01X70270Y18959D02*
G01X69724Y18959D01*
G01X69724Y19050D01*
G01X69770Y19141D01*
G01X69815Y19187D01*
G01X69906Y19232D01*
G01X70042Y19232D01*
G01X70133Y19187D01*
G01X70224Y19096D01*
G01X70270Y18959D01*
G01X70270Y18868D01*
G01X70224Y18732D01*
G01X70133Y18641D01*
G01X70042Y18596D01*
G01X69906Y18596D01*
G01X69815Y18641D01*
G01X69724Y18732D01*
G01X68924Y19096D02*
G01X68970Y19187D01*
G01X69106Y19232D01*
G01X69242Y19232D01*
G01X69379Y19187D01*
G01X69424Y19096D01*
G01X69379Y19005D01*
G01X69288Y18959D01*
G01X69061Y18914D01*
G01X68970Y18868D01*
G01X68924Y18777D01*
G01X68924Y18732D01*
G01X68970Y18641D01*
G01X69106Y18596D01*
G01X69242Y18596D01*
G01X69379Y18641D01*
G01X69424Y18732D01*
G01X68624Y19550D02*
G01X68579Y19505D01*
G01X68533Y19550D01*
G01X68579Y19596D01*
G01X68624Y19550D01*
G01X68579Y19232D02*
G01X68579Y18596D01*
G01X67688Y19232D02*
G01X67688Y18505D01*
G01X67733Y18368D01*
G01X67779Y18323D01*
G01X67870Y18277D01*
G01X68006Y18277D01*
G01X68097Y18323D01*
G01X67688Y19096D02*
G01X67779Y19187D01*
G01X67870Y19232D01*
G01X68006Y19232D01*
G01X68097Y19187D01*
G01X68188Y19096D01*
G01X68233Y18959D01*
G01X68233Y18868D01*
G01X68188Y18732D01*
G01X68097Y18641D01*
G01X68006Y18596D01*
G01X67870Y18596D01*
G01X67779Y18641D01*
G01X67688Y18732D01*
G01X67388Y19232D02*
G01X67388Y18596D01*
G01X67388Y19050D02*
G01X67251Y19187D01*
G01X67161Y19232D01*
G01X67024Y19232D01*
G01X66933Y19187D01*
G01X66888Y19050D01*
G01X66888Y18596D01*
G01X66588Y18959D02*
G01X66042Y18959D01*
G01X66042Y19050D01*
G01X66088Y19141D01*
G01X66133Y19187D01*
G01X66224Y19232D01*
G01X66361Y19232D01*
G01X66451Y19187D01*
G01X66542Y19096D01*
G01X66588Y18959D01*
G01X66588Y18868D01*
G01X66542Y18732D01*
G01X66451Y18641D01*
G01X66361Y18596D01*
G01X66224Y18596D01*
G01X66133Y18641D01*
G01X66042Y18732D01*
G01X65197Y19550D02*
G01X65197Y18596D01*
G01X65197Y19096D02*
G01X65288Y19187D01*
G01X65379Y19232D01*
G01X65515Y19232D01*
G01X65606Y19187D01*
G01X65697Y19096D01*
G01X65742Y18959D01*
G01X65742Y18868D01*
G01X65697Y18732D01*
G01X65606Y18641D01*
G01X65515Y18596D01*
G01X65379Y18596D01*
G01X65288Y18641D01*
G01X65197Y18732D01*
G01X64197Y19550D02*
G01X64197Y18596D01*
G01X64197Y19550D02*
G01X63788Y19550D01*
G01X63651Y19505D01*
G01X63606Y19459D01*
G01X63561Y19368D01*
G01X63561Y19277D01*
G01X63606Y19187D01*
G01X63651Y19141D01*
G01X63788Y19096D01*
G01X64197Y19096D02*
G01X63788Y19096D01*
G01X63651Y19050D01*
G01X63606Y19005D01*
G01X63561Y18914D01*
G01X63561Y18777D01*
G01X63606Y18687D01*
G01X63651Y18641D01*
G01X63788Y18596D01*
G01X64197Y18596D01*
G01X63215Y19232D02*
G01X62942Y18596D01*
G01X62670Y19232D02*
G01X62942Y18596D01*
G01X63033Y18414D01*
G01X63124Y18323D01*
G01X63215Y18277D01*
G01X63261Y18277D01*
G01X61670Y19550D02*
G01X61670Y18596D01*
G01X61670Y19550D02*
G01X61306Y18596D01*
G01X60942Y19550D02*
G01X61306Y18596D01*
G01X60942Y19550D02*
G01X60942Y18596D01*
G01X60097Y19232D02*
G01X60097Y18596D01*
G01X60097Y19096D02*
G01X60188Y19187D01*
G01X60279Y19232D01*
G01X60415Y19232D01*
G01X60506Y19187D01*
G01X60597Y19096D01*
G01X60642Y18959D01*
G01X60642Y18868D01*
G01X60597Y18732D01*
G01X60506Y18641D01*
G01X60415Y18596D01*
G01X60279Y18596D01*
G01X60188Y18641D01*
G01X60097Y18732D01*
G01X59661Y19550D02*
G01X59661Y18777D01*
G01X59615Y18641D01*
G01X59524Y18596D01*
G01X59433Y18596D01*
G01X59797Y19232D02*
G01X59479Y19232D01*
G01X59133Y19550D02*
G01X59133Y18596D01*
G01X59133Y19050D02*
G01X58997Y19187D01*
G01X58906Y19232D01*
G01X58770Y19232D01*
G01X58679Y19187D01*
G01X58633Y19050D01*
G01X58633Y18596D01*
G01X58333Y18959D02*
G01X57788Y18959D01*
G01X57788Y19050D01*
G01X57833Y19141D01*
G01X57879Y19187D01*
G01X57970Y19232D01*
G01X58106Y19232D01*
G01X58197Y19187D01*
G01X58288Y19096D01*
G01X58333Y18959D01*
G01X58333Y18868D01*
G01X58288Y18732D01*
G01X58197Y18641D01*
G01X58106Y18596D01*
G01X57970Y18596D01*
G01X57879Y18641D01*
G01X57788Y18732D01*
G01X57488Y19232D02*
G01X57306Y18596D01*
G01X57124Y19232D02*
G01X57306Y18596D01*
G01X57124Y19232D02*
G01X56942Y18596D01*
G01X56761Y19232D02*
G01X56942Y18596D01*
G01X55761Y19550D02*
G01X55761Y18596D01*
G01X55761Y19550D02*
G01X55351Y19550D01*
G01X55215Y19505D01*
G01X55170Y19459D01*
G01X55124Y19368D01*
G01X55124Y19232D01*
G01X55170Y19141D01*
G01X55215Y19096D01*
G01X55351Y19050D01*
G01X55761Y19050D01*
G01X54779Y18823D02*
G01X54824Y18777D01*
G01X54779Y18732D01*
G01X54733Y18777D01*
G01X54779Y18823D01*
G54D45*
G01X63284Y25588D02*
G01X63829Y24156D01*
G01X63284Y25588D02*
G01X62738Y24156D01*
G01X63624Y24633D02*
G01X62943Y24633D01*
G01X62288Y25588D02*
G01X62288Y24156D01*
G01X62288Y25588D02*
G01X61674Y25588D01*
G01X61470Y25520D01*
G01X61402Y25451D01*
G01X61334Y25315D01*
G01X61334Y25179D01*
G01X61402Y25042D01*
G01X61470Y24974D01*
G01X61674Y24906D01*
G01X62288Y24906D01*
G01X61811Y24906D02*
G01X61334Y24156D01*
G01X60884Y25588D02*
G01X60884Y24156D01*
G01X60884Y25588D02*
G01X60406Y25588D01*
G01X60202Y25520D01*
G01X60065Y25383D01*
G01X59997Y25247D01*
G01X59929Y25042D01*
G01X59929Y24701D01*
G01X59997Y24497D01*
G01X60065Y24360D01*
G01X60202Y24224D01*
G01X60406Y24156D01*
G01X60884Y24156D01*
G01X59479Y25588D02*
G01X59479Y24565D01*
G01X59411Y24360D01*
G01X59274Y24224D01*
G01X59070Y24156D01*
G01X58934Y24156D01*
G01X58729Y24224D01*
G01X58593Y24360D01*
G01X58524Y24565D01*
G01X58524Y25588D01*
G01X58074Y23679D02*
G01X56847Y23679D01*
G01X56397Y25588D02*
G01X56397Y24156D01*
G01X56397Y24156D02*
G01X55579Y24156D01*
G01X55129Y25588D02*
G01X55129Y24156D01*
G01X54679Y25588D02*
G01X54679Y24156D01*
G01X54679Y25588D02*
G01X53724Y24156D01*
G01X53724Y25588D02*
G01X53724Y24156D01*
G01X53274Y25588D02*
G01X53274Y24156D01*
G01X52320Y25588D02*
G01X53274Y24633D01*
G01X52934Y24974D02*
G01X52320Y24156D01*
G01X70814Y8743D02*
G01X70814Y7925D01*
G01X71223Y8334D02*
G01X70405Y8334D01*
G01X69560Y8879D02*
G01X70014Y8879D01*
G01X70060Y8470D01*
G01X70014Y8516D01*
G01X69878Y8561D01*
G01X69741Y8561D01*
G01X69605Y8516D01*
G01X69514Y8425D01*
G01X69469Y8288D01*
G01X69469Y8197D01*
G01X69514Y8061D01*
G01X69605Y7970D01*
G01X69741Y7925D01*
G01X69878Y7925D01*
G01X70014Y7970D01*
G01X70060Y8016D01*
G01X70105Y8106D01*
G01X69169Y8879D02*
G01X68805Y7925D01*
G01X68441Y8879D02*
G01X68805Y7925D01*
G01X65300Y8682D02*
G01X65346Y8773D01*
G01X65437Y8864D01*
G01X65528Y8909D01*
G01X65709Y8909D01*
G01X65800Y8864D01*
G01X65891Y8773D01*
G01X65937Y8682D01*
G01X65982Y8545D01*
G01X65982Y8318D01*
G01X65937Y8182D01*
G01X65891Y8091D01*
G01X65800Y8000D01*
G01X65709Y7955D01*
G01X65528Y7955D01*
G01X65437Y8000D01*
G01X65346Y8091D01*
G01X65300Y8182D01*
G01X65300Y8318D01*
G01X65528Y8318D02*
G01X65300Y8318D01*
G01X65000Y8909D02*
G01X65000Y7955D01*
G01X65000Y8909D02*
G01X64364Y7955D01*
G01X64364Y8909D02*
G01X64364Y7955D01*
G01X64064Y8909D02*
G01X64064Y7955D01*
G01X64064Y8909D02*
G01X63746Y8909D01*
G01X63609Y8864D01*
G01X63518Y8773D01*
G01X63473Y8682D01*
G01X63428Y8545D01*
G01X63428Y8318D01*
G01X63473Y8182D01*
G01X63518Y8091D01*
G01X63609Y8000D01*
G01X63746Y7955D01*
G01X64064Y7955D01*
G01X60662Y8894D02*
G01X60299Y7939D01*
G01X59935Y8894D02*
G01X60299Y7939D01*
G01X59635Y8894D02*
G01X59589Y8848D01*
G01X59544Y8894D01*
G01X59589Y8939D01*
G01X59635Y8894D01*
G01X59589Y8576D02*
G01X59589Y7939D01*
G01X59244Y8576D02*
G01X59244Y7939D01*
G01X59244Y8394D02*
G01X59108Y8530D01*
G01X59017Y8576D01*
G01X58880Y8576D01*
G01X58789Y8530D01*
G01X58744Y8394D01*
G01X58744Y7939D01*
G54D54*
G01X12710Y19665D02*
G01X12710Y18885D01*
G01X12659Y18730D01*
G01X12555Y18626D01*
G01X12398Y18575D01*
G01X12293Y18575D01*
G01X12139Y18626D01*
G01X12034Y18730D01*
G01X11984Y18885D01*
G01X11984Y19665D01*
G01X10912Y19665D02*
G01X11432Y18575D01*
G01X11641Y19665D02*
G01X10912Y19665D01*
M00*
M02*
