;Layer: Drill PTH
;EasyEDA v6.2.46, 2019-12-30T00:29:30+05:30
;ef53065936be4c9b9f598b0f68a09c93,6145028fc9404f35aebdec50a9af1db0,10
;Gerber Generator version 0.2
M48
METRIC,LZ,000.000
;Holesize 1 = 0.305 METRIC
T01C0.305
;Holesize 2 = 0.701 METRIC
T02C0.701
;Holesize 3 = 0.712 METRIC
T03C0.712
;Holesize 4 = 0.889 METRIC
T04C0.889
;Holesize 5 = 0.900 METRIC
T05C0.900
;Holesize 6 = 0.915 METRIC
T06C0.915
;Holesize 7 = 1.000 METRIC
T07C1.000
;Holesize 8 = 1.169 METRIC
T08C1.169
;Holesize 9 = 1.400 METRIC
T09C1.400
;Holesize 10 = 1.701 METRIC
T10C1.701
%
G05
G90
T01
X+053395Y+032293
X+019309Y+037129
X+020450Y+037130
X+021569Y+031049
X+039219Y+048760
X+036279Y+036920
X+039649Y+063159
X+030614Y+038165
X+027150Y+047369
X+019069Y+020912G85X+019069Y+020867
X+022830Y+017980
X+003629Y+042569
X+032069Y+050689
X+032069Y+042929
T02
X+031744Y+018656
X+033014Y+018656
X+034284Y+018656
X+019309Y+078259
X+019309Y+079529
X+019309Y+080799
T03
X+011549Y+078179
X+011549Y+080719
X+006589Y+047739
X+006589Y+050279
T04
X+047099Y+042980
X+049639Y+042980
X+052179Y+042980
X+054719Y+042980
X+057259Y+042980
X+059799Y+042980
X+062339Y+042980
X+064879Y+042980
X+067419Y+042980
X+069959Y+042980
X+022689Y+055150
X+022689Y+057690
X+022689Y+060230
X+022689Y+062770
X+015208Y+055129
X+015208Y+057669
X+015208Y+060209
X+015208Y+062749
X+015208Y+065289
X+015208Y+067829
X+015208Y+070369
X+015208Y+072909
X+045149Y+084099
X+042609Y+084099
X+040069Y+084099
X+045148Y+076210
X+042608Y+076210
X+040068Y+076210
X+042869Y+050489
T05
X+054030Y+007528
X+043870Y+007528
X+043818Y+003259
X+053978Y+003259
X+056048Y+071949
X+045888Y+071949
X+033014Y+028529
X+033014Y+038689
X+023189Y+074449
X+023189Y+084609
X+026189Y+074449
X+026189Y+084609
X+029189Y+074449
X+029189Y+084609
X+032189Y+074449
X+032189Y+084609
X+027934Y+023489
X+038094Y+023489
X+027934Y+014649
X+038094Y+014649
X+027934Y+011329
X+038094Y+011329
T06
X+025408Y+044612
X+025408Y+042072
X+025408Y+039532
X+025408Y+036992
X+025408Y+034452
X+025408Y+031912
X+025408Y+029372
X+025408Y+026832
X+025408Y+024292
X+025408Y+021752
X+025408Y+019212
X+025408Y+016672
X+025408Y+014132
X+025408Y+011592
X+025408Y+009052
X+040648Y+044612
X+040648Y+042072
X+040648Y+039532
X+040648Y+036992
X+040648Y+034452
X+040648Y+031912
X+040648Y+026832
X+040648Y+024292
X+040648Y+021752
X+040648Y+019212
X+040648Y+016672
X+040648Y+014132
X+040648Y+011592
X+040648Y+009052
X+028521Y+054554
X+028521Y+057094
X+028521Y+059634
X+028521Y+062174
X+028521Y+064841
X+028521Y+067381
X+016729Y+041180
X+014189Y+041180
X+011649Y+041180
X+009109Y+041180
X+009109Y+038640
X+011649Y+038640
X+014189Y+038640
X+016729Y+038640
X+075061Y+020501
X+075061Y+023041
X+075061Y+025581
X+075061Y+028121
X+075061Y+030661
X+050555Y+019491
X+050555Y+022031
X+050555Y+024571
X+050555Y+027111
X+050555Y+029651
X+050555Y+032191
X+050555Y+034731
T07
X+040648Y+029372
X+007879Y+067830
X+007879Y+065290
X+007879Y+062750
X+007879Y+060210
X+007879Y+057670
X+007879Y+055130
X+018337Y+004690G85X+018382Y+004690
X+007337Y+004690G85X+007382Y+004690
T08
X+059708Y+082399
X+054729Y+082399
X+059695Y+005115
X+064698Y+005115
X+069702Y+005115
T09
X+048409Y+063020
X+053489Y+063020
X+050949Y+063020
T10
X+066748Y+062859
X+066748Y+078099
M30
