G04 Layer: BottomPasteMaskLayer*
G04 EasyEDA v6.2.46, 2019-12-30T00:29:30+05:30*
G04 ef53065936be4c9b9f598b0f68a09c93,6145028fc9404f35aebdec50a9af1db0,10*
G04 Gerber Generator version 0.2*
G04 Scale: 100 percent, Rotated: No, Reflected: No *
G04 Dimensions in millimeters *
G04 leading zeros omitted , absolute positions ,3 integer and 3 decimal *
%FSLAX33Y33*%
%MOMM*%
G90*
G71D02*


%LPD*%
G36*
G01X11373Y25109D02*
G01X9073Y25109D01*
G01X9073Y21309D01*
G01X11373Y21309D01*
G01X11373Y25109D01*
G37*
G36*
G01X17573Y23809D02*
G01X15573Y23809D01*
G01X15573Y22609D01*
G01X17573Y22609D01*
G01X17573Y23809D01*
G37*
G36*
G01X17573Y21509D02*
G01X15573Y21509D01*
G01X15573Y20309D01*
G01X17573Y20309D01*
G01X17573Y21509D01*
G37*
G36*
G01X17573Y26109D02*
G01X15573Y26109D01*
G01X15573Y24909D01*
G01X17573Y24909D01*
G01X17573Y26109D01*
G37*
G36*
G01X30349Y3329D02*
G01X30349Y4930D01*
G01X27949Y4930D01*
G01X27949Y3329D01*
G01X30349Y3329D01*
G37*
G36*
G01X30349Y6529D02*
G01X30349Y8129D01*
G01X27949Y8129D01*
G01X27949Y6529D01*
G01X30349Y6529D01*
G37*
G36*
G01X76509Y88769D02*
G01X74909Y88769D01*
G01X74909Y86369D01*
G01X76509Y86369D01*
G01X76509Y88769D01*
G37*
G36*
G01X73309Y88769D02*
G01X71709Y88769D01*
G01X71709Y86369D01*
G01X73309Y86369D01*
G01X73309Y88769D01*
G37*
G36*
G01X76509Y85634D02*
G01X74909Y85634D01*
G01X74909Y83234D01*
G01X76509Y83234D01*
G01X76509Y85634D01*
G37*
G36*
G01X73309Y85634D02*
G01X71709Y85634D01*
G01X71709Y83234D01*
G01X73309Y83234D01*
G01X73309Y85634D01*
G37*
G36*
G01X1629Y83289D02*
G01X3229Y83289D01*
G01X3229Y85689D01*
G01X1629Y85689D01*
G01X1629Y83289D01*
G37*
G36*
G01X4829Y83289D02*
G01X6429Y83289D01*
G01X6429Y85689D01*
G01X4829Y85689D01*
G01X4829Y83289D01*
G37*
G36*
G01X1629Y86504D02*
G01X3229Y86504D01*
G01X3229Y88904D01*
G01X1629Y88904D01*
G01X1629Y86504D01*
G37*
G36*
G01X4829Y86504D02*
G01X6429Y86504D01*
G01X6429Y88904D01*
G01X4829Y88904D01*
G01X4829Y86504D01*
G37*
G36*
G01X38229Y3329D02*
G01X38229Y4930D01*
G01X35829Y4930D01*
G01X35829Y3329D01*
G01X38229Y3329D01*
G37*
G36*
G01X38229Y6529D02*
G01X38229Y8129D01*
G01X35829Y8129D01*
G01X35829Y6529D01*
G01X38229Y6529D01*
G37*
M00*
M02*
